<svg width="33" height="33" viewBox="0 0 33 33" fill="none" xmlns="http://www.w3.org/2000/svg">
<path d="M1.50044 31.4991C2.32427 29.691 3.51674 28.0623 4.98896 26.6955C6.46236 25.3276 8.21551 24.2216 10.1631 23.4568C12.1106 22.6919 14.2514 22.2693 16.5 22.2693C18.7486 22.2693 20.8894 22.6919 22.8369 23.4568C24.7845 24.2216 26.5388 25.3287 28.011 26.6955C29.4844 28.0634 30.6757 29.691 31.4996 31.4991M25.5751 9.92524C25.5751 14.5784 21.5121 18.3505 16.5 18.3505C11.4879 18.3505 7.42488 14.5784 7.42488 9.92524C7.42488 5.27208 11.4879 1.49996 16.5 1.49996C21.5121 1.49996 25.5751 5.27208 25.5751 9.92524Z" stroke="#AA8B7A" stroke-width="3" stroke-miterlimit="10" stroke-linecap="round"/>
</svg>
