<svg width="29" height="27" viewBox="0 0 29 27" fill="none" xmlns="http://www.w3.org/2000/svg">
<mask id="path-1-inside-1_395_2182" fill="white">
<path d="M24.753 22.9197C27.1251 20.7233 28.6013 17.8333 28.9301 14.742C29.2589 11.6508 28.42 8.54964 26.5562 5.96694C24.6925 3.38424 21.9193 1.4798 18.7091 0.578121C15.4989 -0.323558 12.0503 -0.166689 8.95106 1.022C5.85178 2.21069 3.2935 4.35765 1.71213 7.09706C0.130768 9.83647 -0.375846 12.9988 0.278614 16.0454C0.933073 19.0919 2.70811 21.834 5.30129 23.8045C7.89446 25.7751 11.1453 26.8521 14.5 26.8521L14.5 24.4508C11.7453 24.4508 9.07586 23.5664 6.94648 21.9483C4.8171 20.3302 3.35953 18.0785 2.82212 15.5769C2.28471 13.0753 2.70072 10.4785 3.99925 8.22901C5.29779 5.97954 7.39851 4.21657 9.94349 3.24048C12.4885 2.26439 15.3202 2.13558 17.9563 2.87599C20.5923 3.6164 22.8695 5.18023 24.4 7.30101C25.9304 9.42179 26.6193 11.9683 26.3492 14.5067C26.0792 17.045 24.867 19.4182 22.9192 21.2218L24.753 22.9197Z"/>
</mask>
<path d="M24.753 22.9197C27.1251 20.7233 28.6013 17.8333 28.9301 14.742C29.2589 11.6508 28.42 8.54964 26.5562 5.96694C24.6925 3.38424 21.9193 1.4798 18.7091 0.578121C15.4989 -0.323558 12.0503 -0.166689 8.95106 1.022C5.85178 2.21069 3.2935 4.35765 1.71213 7.09706C0.130768 9.83647 -0.375846 12.9988 0.278614 16.0454C0.933073 19.0919 2.70811 21.834 5.30129 23.8045C7.89446 25.7751 11.1453 26.8521 14.5 26.8521L14.5 24.4508C11.7453 24.4508 9.07586 23.5664 6.94648 21.9483C4.8171 20.3302 3.35953 18.0785 2.82212 15.5769C2.28471 13.0753 2.70072 10.4785 3.99925 8.22901C5.29779 5.97954 7.39851 4.21657 9.94349 3.24048C12.4885 2.26439 15.3202 2.13558 17.9563 2.87599C20.5923 3.6164 22.8695 5.18023 24.4 7.30101C25.9304 9.42179 26.6193 11.9683 26.3492 14.5067C26.0792 17.045 24.867 19.4182 22.9192 21.2218L24.753 22.9197Z" stroke="#AA8B7A" stroke-width="6" mask="url(#path-1-inside-1_395_2182)"/>
</svg>
