<svg width="32" height="31" viewBox="0 0 32 31" fill="none" xmlns="http://www.w3.org/2000/svg">
<mask id="path-1-inside-1_395_2294" fill="white">
<path d="M24.6467 22.8213C27.0086 20.6343 28.4785 17.7567 28.8059 14.6787C29.1333 11.6008 28.2979 8.51293 26.4422 5.94132C24.5865 3.36971 21.8252 1.47345 18.6287 0.575639C15.4323 -0.322169 11.9986 -0.165973 8.91263 1.01761C5.82665 2.2012 3.27936 4.33894 1.70478 7.06659C0.130207 9.79424 -0.374232 12.943 0.277417 15.9765C0.929067 19.0099 2.69649 21.7403 5.27853 23.7023C7.86057 25.6644 11.0975 26.7368 14.4377 26.7368L14.4377 24.3459C11.6949 24.3459 9.03689 23.4653 6.91666 21.8541C4.79642 20.2429 3.3451 18.0009 2.81 15.51C2.2749 13.0191 2.68912 10.4335 3.98208 8.19368C5.27504 5.95387 7.36675 4.19847 9.9008 3.22657C12.4348 2.25467 15.2544 2.12641 17.8792 2.86364C20.5039 3.60088 22.7714 5.15799 24.2952 7.26966C25.819 9.38134 26.505 11.9169 26.2361 14.4444C25.9673 16.9719 24.7603 19.3348 22.8208 21.1306L24.6467 22.8213Z"/>
</mask>
<path d="M24.6467 22.8213C27.0086 20.6343 28.4785 17.7567 28.8059 14.6787C29.1333 11.6008 28.2979 8.51293 26.4422 5.94132C24.5865 3.36971 21.8252 1.47345 18.6287 0.575639C15.4323 -0.322169 11.9986 -0.165973 8.91263 1.01761C5.82665 2.2012 3.27936 4.33894 1.70478 7.06659C0.130207 9.79424 -0.374232 12.943 0.277417 15.9765C0.929067 19.0099 2.69649 21.7403 5.27853 23.7023C7.86057 25.6644 11.0975 26.7368 14.4377 26.7368L14.4377 24.3459C11.6949 24.3459 9.03689 23.4653 6.91666 21.8541C4.79642 20.2429 3.3451 18.0009 2.81 15.51C2.2749 13.0191 2.68912 10.4335 3.98208 8.19368C5.27504 5.95387 7.36675 4.19847 9.9008 3.22657C12.4348 2.25467 15.2544 2.12641 17.8792 2.86364C20.5039 3.60088 22.7714 5.15799 24.2952 7.26966C25.819 9.38134 26.505 11.9169 26.2361 14.4444C25.9673 16.9719 24.7603 19.3348 22.8208 21.1306L24.6467 22.8213Z" stroke="#AA8B7A" stroke-width="6" mask="url(#path-1-inside-1_395_2294)"/>
<path d="M23.4614 21.8872L30.0002 29.001" stroke="#AA8B7A" stroke-width="3" stroke-linecap="round"/>
</svg>
