<svg width="75" height="70" viewBox="0 0 75 70" fill="none" xmlns="http://www.w3.org/2000/svg">
<path d="M24.9998 47.4068C25.3986 47.851 25.9929 48.1304 26.6625 48.1304C27.2418 48.1304 27.7609 47.9155 28.1521 47.5716C28.5358 47.2348 28.7916 46.7691 28.8442 46.246C28.6185 46.418 28.3251 46.5183 28.0167 46.5183C27.2719 46.5183 26.67 45.9451 26.67 45.2358V25.0161C26.7377 25.0161 26.7979 25.0161 26.8581 25.0232L34.3437 32.1596L32.3125 34.0942C31.4247 34.9396 29.9727 34.9396 29.085 34.0942C28.7163 33.7431 28.4982 33.306 28.4305 32.8546C27.4374 34.1085 27.5427 35.8997 28.7389 37.039C29.5966 37.8558 30.8078 38.1352 31.9137 37.8844C31.846 39.8262 32.5908 41.7822 34.1481 43.2654C34.3287 43.4373 34.5093 43.595 34.7049 43.7454C35.4346 44.3186 36.2772 44.7629 37.18 45.0351C37.2176 45.0495 37.2553 45.0566 37.2929 45.071C37.3305 45.0638 37.3681 45.0495 37.4057 45.0351C38.3085 44.7557 39.1436 44.3115 39.8809 43.7454C40.069 43.595 40.257 43.4373 40.4376 43.2654C41.9949 41.7894 42.7397 39.8262 42.672 37.8844C43.7779 38.1352 44.9892 37.8558 45.8468 37.039C47.0506 35.8926 47.1484 34.1085 46.1553 32.8546C46.0876 33.306 45.8694 33.7502 45.5083 34.0942C44.613 34.9396 43.1685 34.9396 42.2733 34.0942L40.242 32.1596L47.7276 25.0304C47.8179 25.0304 47.9157 25.0232 48.006 25.0161V45.2358C48.006 45.9451 47.4041 46.5183 46.6593 46.5183C46.3434 46.5183 46.0575 46.418 45.8318 46.246C45.8844 46.7691 46.1402 47.2348 46.5239 47.5716C46.9151 47.9155 47.4418 48.1304 48.0135 48.1304C48.6756 48.1304 49.2699 47.8438 49.6762 47.4068C50.421 49.1622 52.2266 50.3946 54.3331 50.3946C57.1092 50.3946 59.3662 48.2522 59.3662 45.6012C59.3662 44.247 58.7793 43.0289 57.8314 42.1548C57.8013 42.1261 57.7712 42.1047 57.7487 42.076C57.6809 42.0115 57.6057 41.9614 57.5305 41.9112C57.1769 41.6819 56.7481 41.5458 56.2891 41.5458C55.913 41.5458 55.5594 41.6318 55.2584 41.7966C54.5663 42.1476 54.0999 42.8355 54.0999 43.6308C54.0999 43.8243 54.13 44.0105 54.1826 44.1897C54.4384 45.071 55.2885 45.7158 56.2967 45.7158C57.5004 45.7158 58.4859 44.7844 58.4859 43.6308C58.4859 43.3442 58.4257 43.0719 58.3204 42.8283C58.5988 43.3012 58.7568 43.8529 58.7568 44.4333C58.7568 46.2675 57.1919 47.7579 55.266 47.7579C53.34 47.7579 51.7752 46.2675 51.7752 44.4333V36.7309C51.7752 35.9571 52.2567 35.2979 52.9488 34.9898C53.024 35.5845 53.5507 36.043 54.1901 36.043C54.8898 36.043 55.4541 35.5057 55.4541 34.8393C55.4541 34.173 54.8898 33.6428 54.1901 33.6428C53.5657 33.6428 53.0541 34.0727 52.9488 34.6315C52.2567 34.3306 51.7676 33.6643 51.7676 32.8904V25.231C51.7676 25.231 51.7827 25.231 51.7902 25.231V23.7192C51.7902 21.885 53.3475 20.4018 55.2735 20.4018C56.0634 20.4018 56.8007 20.6526 57.38 21.0753C57.0339 18.7037 54.8973 16.8766 52.3093 16.8766C50.8272 16.8766 49.4956 17.4856 48.5627 18.4457L37.3531 29.1216L26.3616 18.6535C25.4211 17.5716 24.0068 16.8766 22.4194 16.8766C19.8313 16.8766 17.6947 18.7037 17.3487 21.0753C17.9355 20.6526 18.6652 20.4018 19.4552 20.4018C21.3811 20.4018 22.9385 21.885 22.9385 23.7192V25.231C22.9385 25.231 22.9535 25.231 22.961 25.231V32.8904C22.961 33.8649 22.1937 34.6745 21.2006 34.7892C21.1705 34.1515 20.6213 33.6356 19.9442 33.6356C19.2671 33.6356 18.6878 34.173 18.6878 34.8322C18.6878 35.4913 19.2521 36.0359 19.9442 36.0359C20.6363 36.0359 21.2081 35.4985 21.2081 34.8322C21.2081 34.8322 21.2081 34.825 21.2081 34.8178C22.2012 34.9396 22.9686 35.7421 22.9686 36.7237V44.4261C22.9686 46.2604 21.4037 47.7507 19.4778 47.7507C17.5518 47.7507 15.987 46.2604 15.987 44.4261C15.987 43.8458 16.1449 43.294 16.4233 42.8212C16.318 43.0719 16.2578 43.3442 16.2578 43.6236C16.2578 44.7772 17.2358 45.7087 18.4471 45.7087C19.4477 45.7087 20.2978 45.0638 20.5536 44.1897C20.6062 44.0105 20.6363 43.8171 20.6363 43.6236C20.6363 42.8713 20.2226 42.2193 19.5906 41.8467C19.2596 41.6461 18.8608 41.5386 18.4395 41.5386C17.9806 41.5386 17.5518 41.6747 17.1982 41.904C17.123 41.9542 17.0477 42.0115 16.98 42.0688C16.9499 42.0903 16.9198 42.119 16.8973 42.1476C15.9493 43.0218 15.3625 44.2398 15.3625 45.594C15.3625 48.2379 17.6195 50.3874 20.3956 50.3874C22.5021 50.3874 24.3077 49.155 25.0525 47.3996M37.3079 42.3698C37.3079 42.3698 37.2929 42.3841 37.2853 42.3913C37.2853 42.3913 37.2703 42.3769 37.2628 42.3698C35.1262 40.3349 35.1262 37.0318 37.2628 34.9969L37.2853 34.9755L37.3079 34.9969C39.4445 37.0318 39.4445 40.3349 37.3079 42.3698Z" fill="#AA8B7A"/>
<path d="M1.88082 37.2253C2.8438 37.2253 3.62622 36.5374 3.73907 35.649C4.5591 36.0072 5.1384 36.7237 5.35657 37.5692C6.13899 49.6996 12.4285 61.4287 24.24 67.1822C28.769 69.2529 33.1776 70.0984 37.338 69.9909C41.4984 70.0984 45.8995 69.2529 50.421 67.1822C62.2626 61.4144 68.5596 49.6351 69.3119 37.476C69.5527 36.6736 70.1094 36 70.8993 35.649C71.0122 36.5374 71.7946 37.2253 72.7576 37.2253C73.7958 37.2253 74.6384 36.4228 74.6384 35.434C74.6384 34.4452 73.7958 33.6428 72.7576 33.6428C71.8322 33.6428 71.0648 34.2804 70.9069 35.1259C70.1846 34.8107 69.6279 34.2303 69.342 33.521C69.3044 32.5895 69.2442 31.658 69.1464 30.7266V30.526H69.1314C67.8449 19.0906 61.6231 8.26425 50.4285 2.81166C45.907 0.755301 41.5059 -0.0901717 37.3455 0.0101387C33.1776 -0.104502 28.769 0.748136 24.2325 2.81883C13.0378 8.27141 6.81609 19.0906 5.52961 30.5331C5.51456 30.5331 5.50704 30.5331 5.49199 30.5331V30.9774C5.40923 31.8013 5.34905 32.6325 5.31896 33.4636C5.04812 34.2016 4.47635 34.8035 3.73154 35.1259C3.57356 34.2804 2.80618 33.6428 1.88082 33.6428C0.842607 33.6428 0 34.4452 0 35.434C0 36.4228 0.842607 37.2253 1.88082 37.2253ZM25.7747 5.53437C29.3332 3.45651 33.1927 2.41759 37.0596 2.26712C41.1072 2.33877 45.1622 3.3562 48.8862 5.53437C70.1922 17.8081 70.1997 52.2217 48.8862 64.4953C45.3503 66.566 41.5059 67.605 37.654 67.7626C33.5839 67.7053 29.5063 66.6878 25.7672 64.4953C4.4613 52.2217 4.46883 17.8081 25.7672 5.53437" fill="#AA8B7A"/>
</svg>
