<svg width="133" height="27" viewBox="0 0 133 27" fill="none" xmlns="http://www.w3.org/2000/svg">
<path d="M12.323 0C5.51728 0 0 6.04423 0 13.5C0 20.9558 5.51728 27 12.323 27C19.1288 27 24.6461 20.9558 24.6461 13.5C24.6461 6.04423 19.1288 0 12.323 0ZM16.4685 7.65751H15.0167C14.2144 7.65751 13.3742 8.20147 13.3742 9.16391V11.7588H16.354L15.8574 15.1907H13.3742V23.6864H10.0124V15.1907H7.18556V11.7588H10.0124V9.20594C10.0124 6.65304 11.3875 4.51861 13.8707 4.68612L16.4685 4.81161V7.65751ZM52.0275 6.38165H44.854C43.2389 6.38165 41.9246 7.82202 41.9246 9.59079V17.4086C41.9246 19.178 43.2394 20.6177 44.854 20.6177H52.0275C53.6426 20.6177 54.9568 19.1774 54.9568 17.4086V9.59079C54.9568 7.82141 53.6421 6.38165 52.0275 6.38165ZM48.4596 18.1903H48.4218C46.0931 18.1903 44.1777 16.0919 44.1777 13.4994C44.1777 10.9069 46.0931 8.80847 48.4218 8.80847H48.4596C50.7883 8.80847 52.7416 10.9483 52.7416 13.4994C52.7416 16.0505 50.7883 18.1903 48.4596 18.1903ZM52.6665 9.87899C52.1409 9.87899 51.765 9.42628 51.765 8.89133C51.765 8.35637 52.1404 7.90367 52.6665 7.90367C53.1548 7.90367 53.5681 8.35637 53.5681 8.89133C53.5681 9.42628 53.1548 9.87899 52.6665 9.87899ZM51.2767 13.5C51.2767 15.228 49.9997 16.6269 48.4596 16.6269H48.4218C46.8818 16.6269 45.6048 15.228 45.6048 13.5C45.6048 11.772 46.8818 10.4139 48.4218 10.4139H48.4596C49.9997 10.4139 51.2767 11.8129 51.2767 13.5ZM48.441 0C41.6353 0 36.118 6.04423 36.118 13.5C36.118 20.9558 41.6353 27 48.441 27C55.2468 27 60.764 20.9558 60.764 13.5C60.764 6.04423 55.2468 0 48.441 0ZM56.3094 17.45C56.3094 20.0011 54.394 22.0995 52.0653 22.0995H44.8162C42.4875 22.0995 40.572 20.0011 40.572 17.45V9.54997C40.572 6.99887 42.4875 4.90047 44.8162 4.90047H52.0653C54.394 4.90047 56.3094 6.99887 56.3094 9.54997V17.45ZM120.677 0C113.871 0 108.354 6.04423 108.354 13.5C108.354 20.9558 113.871 27 120.677 27C127.483 27 133 20.9558 133 13.5C133 6.04423 127.483 0 120.677 0ZM120.677 22.0401C119.49 22.0401 118.382 21.7801 117.392 21.2596L113.238 22.0401L113.792 17.5317L113.752 17.4452C113.198 16.2745 112.882 14.9308 112.882 13.5C112.882 8.77485 116.364 4.95991 120.678 4.95991C124.991 4.95991 128.473 8.77485 128.473 13.5C128.473 18.2252 124.991 22.0401 120.678 22.0401H120.677ZM120.677 6.34683C117.076 6.34683 114.147 9.55477 114.147 13.5C114.147 14.9308 114.543 16.2312 115.176 17.3582L115.097 18.0084L114.939 19.3089L114.82 20.3061L115.77 20.1326L116.878 19.9159L117.55 19.7856C118.5 20.3494 119.529 20.6526 120.676 20.6526C124.278 20.6526 127.206 17.4446 127.206 13.4994C127.206 9.55417 124.278 6.34623 120.676 6.34623L120.677 6.34683ZM124.238 16.6647L123.882 17.1414C123.367 17.8349 122.932 17.8781 122.26 17.7052C119.688 16.9685 117.788 14.974 116.957 12.1563C116.681 11.0726 117.076 10.1624 117.907 9.5986C118.342 9.2954 118.62 9.51214 118.777 9.98886L119.173 11.1158C119.173 11.1158 119.45 11.7228 118.738 12.3298C118.659 12.3875 118.632 12.4885 118.659 12.633C118.817 13.153 119.45 14.714 121.468 15.928C121.666 16.0583 121.706 16.0583 121.904 15.8848C122.062 15.7113 122.26 15.4945 122.418 15.321C122.774 14.974 122.972 14.8443 123.288 15.1043C123.526 15.2778 123.763 15.4945 124.001 15.668C124.238 15.8848 124.634 16.1448 124.238 16.6653V16.6647ZM84.559 0C77.7532 0 72.236 6.04423 72.236 13.5C72.236 20.9558 77.7532 27 84.559 27C91.3647 27 96.882 20.9558 96.882 13.5C96.882 6.04423 91.3647 0 84.559 0ZM90.9285 10.169C91.4546 18.1951 83.5615 23.0728 77.1663 19.0819C77.1663 19.0819 80.3236 19.259 81.6592 17.5743C81.6592 17.5743 79.7164 17.7514 78.7447 15.1799C78.7447 15.1799 79.473 15.4903 80.2019 15.0911C80.2019 15.0911 77.9352 14.6918 77.7329 11.721C77.7329 11.721 78.4613 12.3418 79.2713 12.1203C79.2713 12.1203 76.7618 10.4794 78.1785 7.50861C78.1785 7.50861 80.8503 11.2335 84.6955 11.1002C84.0882 7.59687 87.9339 5.51288 90.2001 8.04056C90.2001 8.04056 91.2118 7.73015 92.1024 7.10934C92.1024 7.10934 91.7785 8.30654 90.6857 9.06064C90.6857 9.06064 91.9002 8.88352 92.4263 8.52869C92.4263 8.52869 91.9002 9.72588 90.9285 10.1696V10.169Z" fill="#AA8B7A"/>
</svg>
